# xmcd CD database file
#
# Track frame offsets:
#	150
#	24988
#	46776
#	67490
#	85140
#	104720
#	119966
#	138512
#	157455
#	179170
#	208020
#	223512
#	247961
#	265025
#	295262
#
# Disc length: 4321 seconds
#
# Revision: 2
# Processed by: cddbd v1.5.2PL0 Copyright (c) Steve Scherf et al.
# Submitted via: CDex 1.70beta2
#
DISCID=f610df0f
DTITLE=Various Artist - World Tour - Southern Blues  CD2 (The Big Easy)
DYEAR=2008
DGENRE=Jazz
TTITLE0=Dr. John - It Don't Mean A Thing (If It Ain't Got That Swing)
TTITLE1=George Thorogood and The Destroyers - Bad To The Bone
TTITLE2=Stevie Ray Vaughan and Double Trouble - The Sky Is Crying
TTITLE3=Johnny Winter - Stranger
TTITLE4=Bernhard Allison - Woman Named Trouble
TTITLE5=Moby Grape - Can't Be So Bad
TTITLE6=Edgar Winter - Tobacco Road
TTITLE7=Dickey Betts and Great Southern - Mr. Blues Man
TTITLE8=Keb' Mo' - More Than One Way Home
TTITLE9=Buddy Guy - Somebody's Sleeping In My Bed
TTITLE10=The Gregg Allman Band - Demons
TTITLE11=The Fabulous Thunderbirds - Feelin' Good
TTITLE12=Thomas Anderson - The Old Patterson Place
TTITLE13=The Allman Brothers Band - Gambler's Roll
TTITLE14=Jimmie Vaughan - Dengue Woman Blues
EXTD=YEAR: 2008
EXTT0=
EXTT1=
EXTT2=
EXTT3=
EXTT4=
EXTT5=
EXTT6=
EXTT7=
EXTT8=
EXTT9=
EXTT10=
EXTT11=
EXTT12=
EXTT13=
EXTT14=
PLAYORDER=
